<svg width="17" height="13" viewBox="0 0 17 13" fill="none" xmlns="http://www.w3.org/2000/svg">
<path d="M2.78125 4.55858C2.65091 4.42765 2.49599 4.32375 2.32539 4.25286C2.15478 4.18197 1.97185 4.14547 1.78711 4.14547C1.60236 4.14547 1.41943 4.18197 1.24883 4.25286C1.07822 4.32375 0.923304 4.42765 0.792966 4.55858C0.662032 4.68892 0.558135 4.84384 0.487241 5.01444C0.416347 5.18505 0.379852 5.36798 0.379852 5.55272C0.379852 5.73747 0.416347 5.9204 0.487241 6.091C0.558135 6.2616 0.662032 6.41652 0.792966 6.54686L5.84765 11.6015L5.92968 11.6836C6.05297 11.8071 6.19941 11.9051 6.36061 11.9719C6.52181 12.0388 6.69462 12.0732 6.86914 12.0732C7.04366 12.0732 7.21646 12.0388 7.37767 11.9719C7.53887 11.9051 7.6853 11.8071 7.80859 11.6836L16.5391 2.95312C16.6626 2.82983 16.7606 2.6834 16.8274 2.5222C16.8943 2.36099 16.9287 2.18819 16.9287 2.01367C16.9287 1.83915 16.8943 1.66635 16.8274 1.50514C16.7606 1.34394 16.6626 1.19751 16.5391 1.07422L16.4297 0.964844C16.3064 0.841326 16.16 0.743331 15.9988 0.67647C15.8376 0.60961 15.6648 0.575195 15.4902 0.575195C15.3157 0.575195 15.1429 0.60961 14.9817 0.67647C14.8205 0.743331 14.6741 0.841326 14.5508 0.964844L6.86718 8.64451L2.78125 4.55858Z" fill="white"/>
</svg>
